<svg id="Layer_1" data-name="Layer 1" xmlns="http://www.w3.org/2000/svg" viewBox="0 0 1600 1600"><defs><style>.cls-1{fill:#00aeef;}.cls-2{fill:#262262;}</style></defs><path class="cls-1" d="M356.62,700.08H214.54a34.91,34.91,0,0,0,0,69.82h59.67L179.72,865a35.06,35.06,0,0,0,0,49.37h0a34.54,34.54,0,0,0,49.06,0L376.6,765.6a22.58,22.58,0,0,0,3.95-5.38,34.93,34.93,0,0,0-23.93-60.14Z"/><path class="cls-2" d="M590,633a34.54,34.54,0,0,0-49.06,0L316.26,859.06a22.38,22.38,0,0,0-3.95,5.38,34.93,34.93,0,0,0,23.93,60.14H478.32a34.91,34.91,0,0,0,0-69.82H418.65L590,682.32A35.06,35.06,0,0,0,590,633Z"/><path class="cls-1" d="M646.58,897.19,746.75,776.42H648.67V742H802.31v27.39l-99.9,120.77H806.22v34.43H646.58Z"/><path class="cls-1" d="M809.09,964.49l14.87-29a36.12,36.12,0,0,0,22.95,8.87c11.22,0,17.48-5,23-17.48l.52-1.31L809.61,784.24h42L891,879.72l39.65-95.48h39.12l-63.38,149c-13.57,33.91-32.87,44.08-58.17,44.08C833.87,977.27,818.22,972.58,809.09,964.49Z"/><path class="cls-1" d="M993,818.68H971.34V787.37H993v-6.26c0-31.56,19.3-52.17,54.26-52.17,11.47,0,23.47,2.35,31,7.57L1067.59,766a28.47,28.47,0,0,0-16.43-5c-12,0-18.52,6.52-18.52,20.35v6h36v31.31h-35v105.9H993ZM1085.07,742c0-12.78,10.17-22.7,25.3-22.7s25.3,9.39,25.3,21.91c0,13.57-10.17,23.48-25.3,23.48S1085.07,754.77,1085.07,742Zm5,42.25h40.7V924.58H1090Z"/><path class="cls-1" d="M1168.28,784.24h38.87v18.52c9.91-13.56,26.6-20.6,48.25-20.6v37.56c-3.39-.26-6-.52-9.13-.52-22.43,0-37.3,12.26-37.3,39.13v66.25h-40.69Z"/><path class="cls-1" d="M1267.93,854.41c0-42.25,32.6-72.25,77.21-72.25s76.95,30,76.95,72.25-32.34,72.26-76.95,72.26S1267.93,896.67,1267.93,854.41Zm113,0c0-24.26-15.39-38.86-35.74-38.86s-36,14.6-36,38.86,15.65,38.87,36,38.87S1380.88,878.67,1380.88,854.41Z"/></svg>