<svg id="Layer_1" data-name="Layer 1" xmlns="http://www.w3.org/2000/svg" viewBox="0 0 1600 1600"><defs><style>.cls-1{fill:#00aeef;}.cls-2{fill:#262262;}</style></defs><path class="cls-1" d="M746.1,659.57H474.93c-36.57,0-66.21,29.83-66.21,66.63s29.64,66.63,66.21,66.63H588.81L408.47,974.32a66.92,66.92,0,0,0,0,94.23h0a65.91,65.91,0,0,0,93.63,0L784.23,784.62a42.58,42.58,0,0,0,7.54-10.26,66.57,66.57,0,0,0,20.54-48.16C812.31,689.4,782.66,659.57,746.1,659.57Z"/><path class="cls-2" d="M1191.53,531.45a65.91,65.91,0,0,0-93.63,0L669.07,963a42.85,42.85,0,0,0-7.54,10.26A66.56,66.56,0,0,0,641,1021.43c0,36.8,29.64,66.63,66.21,66.63H978.37c36.57,0,66.21-29.83,66.21-66.63s-29.64-66.63-66.21-66.63H864.49l327-329.12A66.92,66.92,0,0,0,1191.53,531.45Z"/></svg>